<svg width="113" height="114" xmlns="http://www.w3.org/2000/svg" xmlns:xlink="http://www.w3.org/1999/xlink" xml:space="preserve" overflow="hidden"><defs><clipPath id="clip0"><rect x="760" y="369" width="113" height="114"/></clipPath></defs><g clip-path="url(#clip0)" transform="translate(-760 -369)"><path d="M56.5 101.229C81.2032 101.229 101.229 81.2032 101.229 56.5 101.229 31.7968 81.2032 11.7708 56.5 11.7708 31.7968 11.7708 11.7708 31.7968 11.7708 56.5 11.7708 81.2032 31.7968 101.229 56.5 101.229ZM56.5 14.125C79.903 14.125 98.875 33.0969 98.875 56.5 98.875 79.903 79.903 98.875 56.5 98.875 33.0969 98.875 14.125 79.903 14.125 56.5 14.1516 33.1079 33.1079 14.1516 56.5 14.125Z" fill="#06BDD0" transform="matrix(1 0 0 1.00885 760 369)"/><path d="M37.6667 45.9062C33.7662 45.9062 30.6042 49.0682 30.6042 52.9688 30.6042 56.8693 33.7662 60.0313 37.6667 60.0313 41.5672 60.0313 44.7292 56.8693 44.7292 52.9688 44.7292 49.0682 41.5672 45.9062 37.6667 45.9062ZM37.6667 57.6771C35.0664 57.6771 32.9583 55.569 32.9583 52.9688 32.9583 50.3685 35.0664 48.2604 37.6667 48.2604 40.267 48.2604 42.375 50.3685 42.375 52.9688 42.3711 55.5675 40.2654 57.6732 37.6667 57.6771Z" fill="#06BDD0" transform="matrix(1 0 0 1.00885 760 369)"/><path d="M75.3333 45.9062C71.4328 45.9062 68.2708 49.0682 68.2708 52.9688 68.2708 56.8693 71.4328 60.0313 75.3333 60.0313 79.2338 60.0313 82.3958 56.8693 82.3958 52.9688 82.3958 49.0682 79.2338 45.9062 75.3333 45.9062ZM75.3333 57.6771C72.733 57.6771 70.625 55.569 70.625 52.9688 70.625 50.3685 72.733 48.2604 75.3333 48.2604 77.9336 48.2604 80.0417 50.3685 80.0417 52.9688 80.0417 55.569 77.9336 57.6771 75.3333 57.6771Z" fill="#06BDD0" transform="matrix(1 0 0 1.00885 760 369)"/><path d="M30.9691 40.0926 44.8351 38.7366C45.4823 38.6717 45.9542 38.0943 45.8892 37.4471 45.8242 36.8 45.2468 36.3281 44.5997 36.3931L30.4982 37.7738C29.8514 37.8388 29.3796 38.4158 29.4446 39.0626 29.505 39.6642 30.0113 40.1222 30.6159 40.1221Z" fill="#06BDD0" transform="matrix(1 0 0 1.00885 760 369)"/><path d="M68.1684 38.7366 82.071 40.0973C82.071 40.0973 82.3535 40.1221 82.3911 40.1221 83.0412 40.1222 83.5683 39.5952 83.5683 38.9451 83.5685 38.3405 83.1104 37.8342 82.5088 37.7738L68.398 36.3931C67.7508 36.3281 67.1734 36.8 67.1085 37.4471 67.0435 38.0943 67.5154 38.6717 68.1625 38.7366Z" fill="#06BDD0" transform="matrix(1 0 0 1.00885 760 369)"/><path d="M44.4832 80.2112C44.7052 80.5135 45.058 80.6918 45.4331 80.6914 45.6839 80.6901 45.9277 80.6075 46.1275 80.456 52.8876 75.5065 61.5871 74.0378 69.5974 76.4939 70.214 76.7001 70.8809 76.3674 71.087 75.7508 71.2931 75.1343 70.9605 74.4674 70.3439 74.2612 70.3259 74.2552 70.3078 74.2497 70.2895 74.2445 61.5678 71.5682 52.0944 73.168 44.7351 78.5597 44.21 78.943 44.095 79.6794 44.4782 80.2045 44.4799 80.2067 44.4815 80.2089 44.4832 80.2112Z" fill="#06BDD0" transform="matrix(1 0 0 1.00885 760 369)"/></g></svg>