<svg width="114" height="114" xmlns="http://www.w3.org/2000/svg" xmlns:xlink="http://www.w3.org/1999/xlink" xml:space="preserve" overflow="hidden"><defs><clipPath id="clip0"><rect x="583" y="369" width="114" height="114"/></clipPath></defs><g clip-path="url(#clip0)" transform="translate(-583 -369)"><path d="M57 11.875C32.0782 11.875 11.875 32.0782 11.875 57 11.875 81.9218 32.0782 102.125 57 102.125 81.9218 102.125 102.125 81.9218 102.125 57 102.125 32.0782 81.9218 11.875 57 11.875ZM57 99.75C33.3898 99.75 14.25 80.6101 14.25 57 14.25 33.3898 33.3898 14.25 57 14.25 80.6101 14.25 99.75 33.3898 99.75 57 99.7232 80.5991 80.5991 99.7232 57 99.75Z" fill="#00B050" transform="matrix(-1 0 0 1 697 369)"/><path d="M38 57.0154C41.935 57.0154 45.125 53.8255 45.125 49.8904 45.125 45.9554 41.935 42.7654 38 42.7654 34.065 42.7654 30.875 45.9554 30.875 49.8904 30.875 53.8255 34.065 57.0154 38 57.0154ZM38 45.1404C40.6233 45.1404 42.75 47.2671 42.75 49.8904 42.75 52.5137 40.6233 54.6404 38 54.6404 35.3767 54.6404 33.25 52.5137 33.25 49.8904 33.252 47.2674 35.3769 45.1408 38 45.1369Z" fill="#00B050" transform="matrix(-1 0 0 1 697 369)"/><path d="M76 57.0154C79.935 57.0154 83.125 53.8255 83.125 49.8904 83.125 45.9554 79.935 42.7654 76 42.7654 72.065 42.7654 68.875 45.9554 68.875 49.8904 68.875 53.8255 72.065 57.0154 76 57.0154ZM76 45.1404C78.6233 45.1404 80.75 47.2671 80.75 49.8904 80.75 52.5137 78.6233 54.6404 76 54.6404 73.3767 54.6404 71.25 52.5137 71.25 49.8904 71.2513 47.267 73.3766 45.1402 76 45.1369Z" fill="#00B050" transform="matrix(-1 0 0 1 697 369)"/><path d="M30.2812 73.6464C37.5461 88.4027 55.3979 94.4757 70.1543 87.2108 76.0481 84.3092 80.8171 79.5402 83.7188 73.6464L30.2812 73.6464ZM57 87.8964C47.9676 87.9295 39.5067 83.4811 34.4137 76.0214L79.5862 76.0214C74.4945 83.483 66.0333 87.9334 57 87.9011Z" fill="#00B050" transform="matrix(-1 0 0 1 697 369)"/></g></svg>