<svg width="113" height="113" xmlns="http://www.w3.org/2000/svg" xmlns:xlink="http://www.w3.org/1999/xlink" xml:space="preserve" overflow="hidden"><defs><clipPath id="clip0"><rect x="760" y="551" width="113" height="113"/></clipPath></defs><g clip-path="url(#clip0)" transform="translate(-760 -551)"><path d="M816.5 562.771C791.797 562.771 771.771 582.797 771.771 607.5 771.771 632.203 791.797 652.229 816.5 652.229 841.203 652.229 861.229 632.203 861.229 607.5 861.229 582.797 841.203 562.771 816.5 562.771ZM816.5 649.875C793.097 649.875 774.125 630.903 774.125 607.5 774.125 584.097 793.097 565.125 816.5 565.125 839.903 565.125 858.875 584.097 858.875 607.5 858.848 630.892 839.892 649.848 816.5 649.875Z" fill="#7030A0"/><path d="M816.5 620.448C807.567 620.436 799.117 624.498 793.547 631.482 793.14 631.989 793.221 632.73 793.728 633.137 794.235 633.544 794.976 633.463 795.383 632.956 804.71 621.292 821.726 619.397 833.39 628.724 834.953 629.974 836.372 631.393 837.622 632.956 838.029 633.463 838.769 633.544 839.277 633.137 839.784 632.73 839.865 631.989 839.458 631.482 833.887 624.497 825.434 620.435 816.5 620.448Z" fill="#7030A0"/><path d="M804.729 600.452C804.729 596.551 801.567 593.389 797.667 593.389 793.766 593.389 790.604 596.551 790.604 600.452 790.604 604.352 793.766 607.514 797.667 607.514 801.567 607.514 804.729 604.352 804.729 600.452ZM792.958 600.452C792.958 597.851 795.066 595.743 797.667 595.743 800.267 595.743 802.375 597.851 802.375 600.452 802.375 603.052 800.267 605.16 797.667 605.16 795.068 605.156 792.962 603.05 792.958 600.452Z" fill="#7030A0"/><path d="M835.333 593.387C831.433 593.387 828.271 596.549 828.271 600.449 828.271 604.35 831.433 607.512 835.333 607.512 839.234 607.512 842.396 604.35 842.396 600.449 842.396 596.549 839.234 593.387 835.333 593.387ZM835.333 605.158C832.733 605.158 830.625 603.05 830.625 600.449 830.625 597.849 832.733 595.741 835.333 595.741 837.934 595.741 840.042 597.849 840.042 600.449 840.044 603.05 837.937 605.159 835.337 605.161 835.336 605.161 835.335 605.161 835.333 605.161Z" fill="#7030A0"/><path d="M794.135 616.935C794.135 618.886 795.716 620.467 797.667 620.467 799.617 620.467 801.198 618.886 801.198 616.935 801.198 614.934 797.667 609.873 797.667 609.873 797.667 609.873 794.135 614.933 794.135 616.935ZM798.844 616.935C798.853 617.586 798.333 618.12 797.683 618.129 797.033 618.138 796.499 617.619 796.49 616.968 796.75 616.027 797.146 615.128 797.667 614.301 798.184 615.118 798.58 616.005 798.844 616.935Z" fill="#7030A0"/></g></svg>