<svg width="113" height="114" xmlns="http://www.w3.org/2000/svg" xmlns:xlink="http://www.w3.org/1999/xlink" xml:space="preserve" overflow="hidden"><defs><clipPath id="clip0"><rect x="950" y="369" width="113" height="114"/></clipPath></defs><g clip-path="url(#clip0)" transform="translate(-950 -369)"><path d="M56.5 11.7708C31.7968 11.7708 11.7708 31.7968 11.7708 56.5 11.7708 81.2032 31.7968 101.229 56.5 101.229 81.2032 101.229 101.229 81.2032 101.229 56.5 101.229 31.7968 81.2032 11.7708 56.5 11.7708ZM56.5 98.875C33.0969 98.875 14.125 79.903 14.125 56.5 14.125 33.0969 33.0969 14.125 56.5 14.125 79.903 14.125 98.875 33.0969 98.875 56.5 98.8484 79.8921 79.8921 98.8484 56.5 98.875Z" fill="#0070C0" transform="matrix(1 0 0 1.00885 950 369)"/><path d="M56.5 69.4479C47.5672 69.436 39.1167 73.4984 33.5469 80.4819 33.14 80.989 33.2211 81.73 33.7281 82.1369 34.2352 82.5438 34.9762 82.4627 35.3831 81.9556 44.7101 70.2918 61.7264 68.3974 73.3902 77.7242 74.9529 78.9738 76.372 80.3929 77.6216 81.9556 78.0285 82.4627 78.7695 82.5438 79.2766 82.1369 79.7837 81.73 79.8648 80.989 79.4578 80.4819 73.8869 73.4971 65.4344 69.4345 56.5 69.4479Z" fill="#0070C0" transform="matrix(1 0 0 1.00885 950 369)"/><path d="M44.7292 49.4516C44.7292 45.5511 41.5672 42.3891 37.6667 42.3891 33.7662 42.3891 30.6042 45.5511 30.6042 49.4516 30.6042 53.3521 33.7662 56.5141 37.6667 56.5141 41.5672 56.5141 44.7292 53.3521 44.7292 49.4516ZM32.9583 49.4516C32.9583 46.8513 35.0664 44.7433 37.6667 44.7433 40.267 44.7433 42.375 46.8513 42.375 49.4516 42.375 52.0519 40.267 54.16 37.6667 54.16 35.0679 54.1561 32.9622 52.0504 32.9583 49.4516Z" fill="#0070C0" transform="matrix(1 0 0 1.00885 950 369)"/><path d="M75.3333 42.3868C71.4328 42.3868 68.2708 45.5488 68.2708 49.4493 68.2708 53.3498 71.4328 56.5118 75.3333 56.5118 79.2338 56.5118 82.3958 53.3498 82.3958 49.4493 82.3958 45.5488 79.2338 42.3868 75.3333 42.3868ZM75.3333 54.1576C72.733 54.1576 70.625 52.0496 70.625 49.4493 70.625 46.849 72.733 44.7409 75.3333 44.7409 77.9336 44.7409 80.0417 46.849 80.0417 49.4493 80.0437 52.0496 77.9372 54.1591 75.3369 54.1611 75.3357 54.1611 75.3345 54.1611 75.3333 54.1611Z" fill="#0070C0" transform="matrix(1 0 0 1.00885 950 369)"/></g></svg>