<svg width="114" height="114" xmlns="http://www.w3.org/2000/svg" xmlns:xlink="http://www.w3.org/1999/xlink" xml:space="preserve" overflow="hidden"><defs><clipPath id="clip0"><rect x="846" y="750" width="114" height="114"/></clipPath></defs><g clip-path="url(#clip0)" transform="translate(-846 -750)"><path d="M903 761.875C878.078 761.875 857.875 782.078 857.875 807 857.875 831.922 878.078 852.125 903 852.125 927.922 852.125 948.125 831.922 948.125 807 948.125 782.078 927.922 761.875 903 761.875ZM903 849.75C879.39 849.75 860.25 830.61 860.25 807 860.25 783.39 879.39 764.25 903 764.25 926.61 764.25 945.75 783.39 945.75 807 945.723 830.599 926.599 849.723 903 849.75Z"/><path d="M876.875 786.812C876.992 786.812 877.109 786.795 877.222 786.761L891.115 782.516C891.743 782.325 892.096 781.661 891.905 781.034 891.713 780.406 891.049 780.053 890.422 780.244L876.528 784.489C875.901 784.679 875.546 785.342 875.736 785.969 875.888 786.471 876.351 786.813 876.875 786.812Z"/><path d="M914.887 782.516 928.781 786.761C928.892 786.795 929.008 786.812 929.125 786.812 929.781 786.814 930.314 786.283 930.315 785.627 930.316 785.103 929.973 784.641 929.472 784.489L915.578 780.244C914.951 780.053 914.287 780.406 914.095 781.034 913.904 781.661 914.257 782.325 914.885 782.516Z"/><path d="M903 817.706C897.097 817.706 892.312 823.024 892.312 829.581 892.312 836.139 897.097 841.456 903 841.456 908.903 841.456 913.688 836.138 913.688 829.581 913.688 823.025 908.903 817.706 903 817.706ZM903 839.089C898.416 839.089 894.688 834.826 894.688 829.589 894.688 824.352 898.416 820.089 903 820.089 907.584 820.089 911.312 824.352 911.312 829.589 911.312 834.826 907.584 839.089 903 839.089Z"/><path d="M897.062 803.306C897.055 796.824 891.803 791.57 885.32 791.562 877.381 791.571 870.947 798.005 870.938 805.944 870.938 806.6 871.469 807.132 872.125 807.132 872.781 807.132 873.312 806.6 873.312 805.944 873.32 799.316 878.692 793.945 885.32 793.938 890.491 793.945 894.68 798.135 894.688 803.306 894.683 807.311 891.437 810.557 887.432 810.562 884.359 810.556 881.87 808.067 881.862 804.994 881.862 802.674 883.089 801.289 885.146 801.289 885.631 801.308 886.089 801.514 886.426 801.863 886.676 802.104 886.817 802.436 886.817 802.783 886.795 803.438 887.308 803.987 887.963 804.01 888.602 804.047 889.151 803.558 889.188 802.918 889.189 802.9 889.189 802.882 889.189 802.864 889.215 801.873 888.834 800.914 888.134 800.212 887.35 799.4 886.275 798.933 885.146 798.914 881.762 798.914 879.487 801.358 879.487 804.994 879.495 809.379 883.047 812.931 887.432 812.938 892.748 812.93 897.056 808.622 897.062 803.306Z"/><path d="M931.5 798.556C931.492 805.183 926.122 810.554 919.494 810.562 914.323 810.556 910.132 806.366 910.125 801.194 910.13 797.188 913.377 793.941 917.383 793.938 920.455 793.945 922.943 796.434 922.95 799.506 922.95 801.826 921.723 803.211 919.667 803.211 919.183 803.191 918.724 802.987 918.388 802.638 918.138 802.397 917.996 802.064 917.997 801.717 918.019 801.061 917.506 800.511 916.85 800.489 916.194 800.467 915.644 800.98 915.622 801.636 915.596 802.627 915.978 803.586 916.678 804.288 917.461 805.1 918.536 805.567 919.664 805.586 923.049 805.586 925.323 803.142 925.323 799.506 925.315 795.123 921.766 791.572 917.383 791.562 912.066 791.568 907.757 795.877 907.75 801.194 907.757 807.677 913.011 812.931 919.494 812.938 927.433 812.928 933.866 806.494 933.875 798.556 933.875 797.9 933.343 797.368 932.688 797.368 932.032 797.368 931.5 797.9 931.5 798.556Z"/></g></svg>