<svg width="113" height="113" xmlns="http://www.w3.org/2000/svg" xmlns:xlink="http://www.w3.org/1999/xlink" xml:space="preserve" overflow="hidden"><defs><clipPath id="clip0"><rect x="950" y="551" width="113" height="113"/></clipPath></defs><g clip-path="url(#clip0)" transform="translate(-950 -551)"><path d="M1006.5 562.771C981.781 562.771 961.771 582.781 961.771 607.5 961.771 632.219 981.781 652.229 1006.5 652.229 1031.22 652.229 1051.23 632.219 1051.23 607.5 1051.23 582.781 1031.22 562.771 1006.5 562.771ZM985.312 600.32C986.372 599.731 987.667 599.378 988.844 599.378L988.844 646.108C987.667 645.52 986.49 644.931 985.312 644.225L985.312 600.32ZM1024.16 599.26C1025.33 599.378 1026.63 599.614 1027.69 600.202L1027.69 644.107C1026.51 644.814 1025.33 645.402 1024.16 645.991L1024.16 599.26ZM1030.04 642.695 1030.04 602.085C1030.98 603.027 1031.57 604.204 1032.04 605.499 1032.28 606.088 1032.87 606.441 1033.57 606.323 1034.16 606.088 1034.51 605.499 1034.4 604.793 1032.63 598.907 1026.28 595.611 1020.39 597.377 1016.86 598.436 1014.03 601.261 1012.97 604.793 1012.74 605.381 1013.09 606.088 1013.68 606.323 1014.27 606.558 1014.97 606.205 1015.21 605.617 1015.21 605.617 1015.21 605.617 1015.21 605.617 1016.15 602.556 1018.74 600.202 1021.92 599.614L1021.92 647.168C1012.03 651.052 1001.2 651.052 991.316 647.168L991.316 599.496C994.494 600.084 997.083 602.439 998.025 605.499 998.26 606.088 998.849 606.441 999.555 606.323 1000.26 606.205 1000.5 605.499 1000.38 604.793 998.614 598.907 992.257 595.611 986.372 597.377 982.841 598.436 980.016 601.261 978.956 604.793 978.721 605.381 979.074 606.088 979.78 606.323 980.369 606.558 981.075 606.205 981.31 605.499 981.664 604.204 982.37 603.027 983.311 602.085L983.311 642.695C963.536 629.747 958.24 603.38 971.305 583.958 984.371 564.536 1010.62 559.24 1030.04 572.305 1049.46 585.371 1054.76 611.62 1041.69 631.042 1038.63 635.632 1034.63 639.634 1030.04 642.695Z" fill="#203864"/><path d="M997.201 583.252C993.199 587.96 986.843 589.726 980.957 588.078 980.369 587.843 979.662 588.314 979.545 588.902 979.309 589.491 979.78 590.197 980.369 590.315 987.196 592.316 994.494 590.079 999.084 584.782 999.555 584.311 999.438 583.487 998.967 583.134 998.496 582.781 997.672 582.664 997.201 583.252L997.201 583.252Z" fill="#203864"/><path d="M1032.04 588.078C1026.16 589.844 1019.8 587.843 1015.8 583.252 1015.45 582.781 1014.62 582.664 1014.15 583.134 1013.68 583.487 1013.56 584.311 1014.03 584.782 1014.03 584.782 1014.03 584.782 1014.03 584.782 1018.62 590.197 1025.92 592.316 1032.75 590.315 1033.34 590.079 1033.69 589.491 1033.57 588.902 1033.34 588.196 1032.75 587.843 1032.04 588.078Z" fill="#203864"/><path d="M994.729 629.041C994.729 636.221 1000.03 641.989 1006.5 641.989 1012.97 641.989 1018.27 636.221 1018.27 629.041 1018.27 621.86 1012.97 616.093 1006.5 616.093 1000.03 616.093 994.729 621.86 994.729 629.041ZM1015.92 629.041C1015.92 634.926 1011.68 639.634 1006.5 639.634 1001.32 639.634 997.083 634.926 997.083 629.041 997.083 623.155 1001.32 618.447 1006.5 618.447 1011.68 618.447 1015.92 623.155 1015.92 629.041L1015.92 629.041Z" fill="#203864"/></g></svg>