<svg width="114" height="113" xmlns="http://www.w3.org/2000/svg" xmlns:xlink="http://www.w3.org/1999/xlink" xml:space="preserve" overflow="hidden"><defs><clipPath id="clip0"><rect x="239" y="551" width="114" height="113"/></clipPath></defs><g clip-path="url(#clip0)" transform="translate(-239 -551)"><path d="M56.5 11.7708C31.7968 11.7708 11.7708 31.7968 11.7708 56.5 11.7708 81.2032 31.7968 101.229 56.5 101.229 81.2032 101.229 101.229 81.2032 101.229 56.5 101.229 31.7968 81.2032 11.7708 56.5 11.7708ZM56.5 98.875C33.0969 98.875 14.125 79.903 14.125 56.5 14.125 33.0969 33.0969 14.125 56.5 14.125 79.903 14.125 98.875 33.0969 98.875 56.5 98.8484 79.8921 79.8921 98.8484 56.5 98.875Z" fill="#C00000" transform="matrix(1.00885 0 0 1 239 551)"/><path d="M82.6748 37.6266C78.8785 33.6621 73.5309 31.5675 68.0519 31.899 67.4018 31.9364 66.9051 32.4936 66.9425 33.1437 66.9799 33.7938 67.5372 34.2906 68.1873 34.2531 74.6276 33.8843 80.6892 37.3134 83.6906 43.0236 83.8938 43.4115 84.2956 43.6546 84.7335 43.6545 84.9234 43.655 85.1105 43.6089 85.2785 43.5203 85.8545 43.2187 86.0769 42.5074 85.7754 41.9316 85.7754 41.9315 85.7752 41.9314 85.7752 41.9312 84.9506 40.3569 83.9067 38.9077 82.6748 37.6266Z" fill="#C00000" transform="matrix(1.00885 0 0 1 239 551)"/><path d="M39.1133 31.4811C40.5432 30.869 42.0528 30.4628 43.5968 30.2746 44.2427 30.1963 44.7027 29.6092 44.6244 28.9633 44.546 28.3174 43.959 27.8574 43.3131 27.9357 35.9899 28.8335 29.868 33.9304 27.6579 40.9696 27.4637 41.5898 27.8088 42.25 28.4289 42.4444 28.5433 42.4798 28.6623 42.4977 28.782 42.4974 29.2957 42.4969 29.7497 42.1635 29.9038 41.6735 31.3362 37.0932 34.7012 33.369 39.1133 31.4811Z" fill="#C00000" transform="matrix(1.00885 0 0 1 239 551)"/><path d="M82.4382 58.8542C81.7886 58.8664 81.2717 59.4028 81.2835 60.0524 81.2835 60.1443 81.3859 69.2396 75.9172 71.8586 72.1564 73.6607 69.661 72.8556 66.5005 71.8386 63.5441 70.6834 60.3506 70.2668 57.1968 70.625 54.2555 70.9685 51.5317 72.3451 49.5105 74.5094 48.0742 76.2123 45.9389 77.1659 43.7122 77.099 40.2548 77.0095 37.0565 75.2458 35.1359 72.3694 34.7707 71.8316 34.0387 71.6918 33.5009 72.057 32.9958 72.4 32.8369 73.0725 33.1349 73.6054 35.4897 77.171 39.4427 79.3559 43.7145 79.4531 46.5383 79.5309 49.2509 78.3513 51.1196 76.2326 52.7884 74.4042 55.0633 73.242 57.5229 72.9615 60.3274 72.6599 63.1631 73.0478 65.7837 74.0915 69.0018 75.1262 72.3282 76.2008 76.9365 73.9938 83.7742 70.7168 83.6459 60.4574 83.6459 60.0171 83.62 59.3684 83.0874 58.8556 82.4382 58.8542Z" fill="#C00000" transform="matrix(1.00885 0 0 1 239 551)"/><path d="M35.3125 54.1458C35.3125 58.0463 38.4745 61.2083 42.375 61.2083 46.2755 61.2083 49.4375 58.0463 49.4375 54.1458 49.4375 50.2453 46.2755 47.0833 42.375 47.0833 38.4745 47.0833 35.3125 50.2453 35.3125 54.1458ZM47.0833 54.1458C47.0833 56.7461 44.9753 58.8542 42.375 58.8542 39.7747 58.8542 37.6667 56.7461 37.6667 54.1458 37.6667 51.5455 39.7747 49.4375 42.375 49.4375 44.9753 49.4375 47.0833 51.5455 47.0833 54.1458Z" fill="#C00000" transform="matrix(1.00885 0 0 1 239 551)"/><path d="M60.7375 49.1609C61.3328 49.4221 62.0271 49.1512 62.2883 48.556 62.2885 48.5555 62.2887 48.5552 62.2889 48.5547 62.5456 47.9917 62.8871 47.4713 63.3012 47.0115 64.6046 50.7326 68.6777 52.6925 72.3989 51.3891 74.4478 50.6714 76.0588 49.0604 76.7764 47.0115 77.1905 47.4713 77.532 47.9917 77.7887 48.5547 77.9759 48.9835 78.3992 49.2607 78.8669 49.2609 79.0289 49.26 79.1891 49.2265 79.3378 49.1621 79.9331 48.901 80.2041 48.2067 79.9431 47.6114 79.943 47.6111 79.9429 47.6109 79.9428 47.6107 78.435 44.1724 74.4541 41.8618 70.0365 41.8618 65.6189 41.8618 61.638 44.1724 60.1301 47.6107 59.8698 48.2063 60.1414 48.9003 60.7371 49.1608 60.7373 49.1608 60.7374 49.1609 60.7375 49.1609ZM70.0365 44.2171C71.7305 44.2061 73.3983 44.6365 74.8755 45.466 74.8625 45.499 74.8366 45.5213 74.826 45.5555 74.2665 48.2006 71.6687 49.8915 69.0236 49.3322 67.1284 48.9314 65.6477 47.4507 65.2469 45.5555 65.2363 45.5213 65.2104 45.499 65.1975 45.466 66.6744 44.6357 68.3422 44.2044 70.0365 44.2148Z" fill="#C00000" transform="matrix(1.00885 0 0 1 239 551)"/></g></svg>