<svg width="114" height="114" xmlns="http://www.w3.org/2000/svg" xmlns:xlink="http://www.w3.org/1999/xlink" xml:space="preserve" overflow="hidden"><defs><clipPath id="clip0"><rect x="239" y="369" width="114" height="114"/></clipPath></defs><g clip-path="url(#clip0)" transform="translate(-239 -369)"><path d="M296 380.875C271.062 380.875 250.875 401.062 250.875 426 250.875 450.938 271.062 471.125 296 471.125 320.938 471.125 341.125 450.938 341.125 426 341.125 401.062 320.938 380.875 296 380.875ZM296 468.75C272.369 468.75 253.25 449.631 253.25 426 253.25 402.369 272.369 383.25 296 383.25 319.631 383.25 338.75 402.369 338.75 426 338.75 449.631 319.631 468.75 296 468.75Z" fill="#BF9000"/><path d="M269.281 442.625C276.525 457.35 294.456 463.406 309.181 456.163 315.119 453.312 319.869 448.444 322.719 442.625L269.281 442.625ZM296 456.875C286.975 456.875 278.544 452.481 273.438 445L318.562 445C313.456 452.481 305.025 456.875 296 456.875L296 456.875Z" fill="#BF9000"/><path d="M271.181 427.663C271.538 428.256 272.25 428.375 272.844 428.138L287.094 419.944C287.688 419.587 287.806 418.875 287.569 418.281 287.45 418.044 287.331 417.925 287.094 417.806L272.844 409.612C272.25 409.256 271.538 409.494 271.181 409.969 270.825 410.562 271.062 411.275 271.538 411.631 271.538 411.631 271.538 411.631 271.538 411.631L284.125 418.875C284.125 418.875 284.125 418.875 284.125 418.875 284.125 418.875 284.125 418.875 284.125 418.875L271.656 426C271.062 426.356 270.944 427.069 271.181 427.663Z" fill="#BF9000"/><path d="M304.906 419.944 319.156 428.019C319.75 428.375 320.462 428.138 320.819 427.663 321.175 427.069 320.938 426.356 320.462 426 320.462 426 320.462 426 320.462 426L307.875 418.875C307.875 418.875 307.875 418.875 307.875 418.875 307.875 418.875 307.875 418.875 307.875 418.875L320.344 411.75C320.938 411.394 321.175 410.681 320.819 410.087 320.462 409.494 319.75 409.256 319.156 409.612 319.156 409.612 319.156 409.612 319.156 409.612L304.906 417.806C304.312 418.163 304.194 418.875 304.431 419.469 304.55 419.706 304.788 419.825 304.906 419.944L304.906 419.944Z" fill="#BF9000"/></g></svg>