<svg width="114" height="114" xmlns="http://www.w3.org/2000/svg" xmlns:xlink="http://www.w3.org/1999/xlink" xml:space="preserve" overflow="hidden"><defs><clipPath id="clip0"><rect x="312" y="740" width="114" height="114"/></clipPath></defs><g clip-path="url(#clip0)" transform="translate(-312 -740)"><path d="M354.75 802.938C363.276 802.938 370.188 796.026 370.188 787.5 370.188 778.974 363.276 772.062 354.75 772.062 346.224 772.062 339.312 778.974 339.312 787.5 339.322 796.022 346.228 802.928 354.75 802.938ZM354.75 774.438C361.964 774.438 367.812 780.286 367.812 787.5 367.812 794.714 361.964 800.562 354.75 800.562 347.536 800.562 341.688 794.714 341.688 787.5 341.695 780.289 347.539 774.445 354.75 774.438Z" fill="#FF0000"/><path d="M386.219 775.625C379.332 775.625 373.75 781.207 373.75 788.094 373.75 794.98 379.332 800.562 386.219 800.562 393.105 800.562 398.688 794.98 398.688 788.094 398.68 781.211 393.102 775.633 386.219 775.625ZM386.219 798.188C380.644 798.188 376.125 793.668 376.125 788.094 376.125 782.519 380.644 778 386.219 778 391.793 778 396.312 782.519 396.312 788.094 396.306 793.666 391.791 798.181 386.219 798.188Z" fill="#FF0000"/><path d="M342.325 813.589C349.545 828.31 367.331 834.391 382.052 827.172 387.96 824.275 392.737 819.497 395.634 813.589L342.325 813.589ZM368.98 827.83C359.964 827.867 351.52 823.419 346.449 815.964L391.51 815.964C386.44 823.419 377.996 827.867 368.98 827.83Z" fill="#FF0000"/><path d="M369 751.875C344.078 751.875 323.875 772.078 323.875 797 323.875 821.922 344.078 842.125 369 842.125 393.922 842.125 414.125 821.922 414.125 797 414.125 772.078 393.922 751.875 369 751.875ZM369 839.75C345.39 839.75 326.25 820.61 326.25 797 326.25 773.39 345.39 754.25 369 754.25 392.61 754.25 411.75 773.39 411.75 797 411.723 820.599 392.599 839.723 369 839.75Z" fill="#FF0000"/><path d="M386.219 782.75C383.267 782.75 380.875 785.142 380.875 788.094 380.875 791.045 383.267 793.438 386.219 793.438 389.17 793.438 391.562 791.045 391.562 788.094 391.562 785.142 389.17 782.75 386.219 782.75ZM386.219 791.062C384.579 791.062 383.25 789.733 383.25 788.094 383.25 786.454 384.579 785.125 386.219 785.125 387.858 785.125 389.188 786.454 389.188 788.094 389.188 789.733 387.858 791.062 386.219 791.062Z" fill="#FF0000"/><path d="M358.312 787.495C358.312 789.463 356.718 791.058 354.75 791.058 352.782 791.058 351.188 789.463 351.188 787.495 351.188 785.528 352.782 783.933 354.75 783.933 356.718 783.933 358.312 785.528 358.312 787.495Z" fill="#FF0000"/></g></svg>