<svg width="114" height="114" xmlns="http://www.w3.org/2000/svg" xmlns:xlink="http://www.w3.org/1999/xlink" xml:space="preserve" overflow="hidden"><defs><clipPath id="clip0"><rect x="416" y="369" width="114" height="114"/></clipPath></defs><g clip-path="url(#clip0)" transform="translate(-416 -369)"><path d="M473 449.75C480.029 449.759 486.678 446.563 491.061 441.068 491.48 440.564 491.412 439.815 490.908 439.396 490.405 438.976 489.656 439.044 489.236 439.548 489.226 439.559 489.217 439.571 489.208 439.583 482.051 448.535 468.992 449.99 460.04 442.833 458.839 441.873 457.749 440.783 456.789 439.583 456.389 439.063 455.643 438.967 455.124 439.368 454.605 439.769 454.508 440.514 454.909 441.034 454.918 441.045 454.927 441.057 454.937 441.068 459.32 446.564 465.97 449.76 473 449.75Z" fill="#FF9C19"/><path d="M464.296 423.974C464.488 424.601 465.153 424.954 465.781 424.761 466.408 424.568 466.76 423.903 466.567 423.276 464.742 417.319 458.433 413.97 452.476 415.795 448.895 416.893 446.093 419.695 444.995 423.276 444.802 423.903 445.155 424.568 445.782 424.761 446.409 424.954 447.074 424.601 447.267 423.974 448.71 419.272 453.692 416.63 458.394 418.072 461.218 418.939 463.429 421.15 464.296 423.974Z" fill="#FF9C19"/><path d="M479.446 423.276C479.253 423.903 479.605 424.567 480.232 424.76 480.859 424.953 481.523 424.601 481.716 423.974 483.158 419.271 488.139 416.628 492.842 418.07 495.668 418.937 497.88 421.148 498.746 423.974 498.939 424.601 499.604 424.953 500.231 424.76 500.858 424.567 501.21 423.903 501.017 423.276 499.19 417.319 492.88 413.971 486.924 415.798 483.345 416.896 480.543 419.697 479.446 423.276Z" fill="#FF9C19"/><path d="M436.132 396.448C433.442 397.147 431.533 399.532 431.438 402.309 431.438 408.627 440.905 415.929 441.308 416.236 441.734 416.561 442.324 416.561 442.75 416.236 443.152 415.929 452.619 408.627 452.619 402.306 452.489 399.534 450.583 397.165 447.903 396.444 445.615 395.956 443.266 396.953 442.028 398.938 440.785 396.947 438.426 395.95 436.132 396.448ZM442.028 402.393 442.028 402.393C442.476 402.393 442.886 402.14 443.088 401.739 444.246 399.439 445.766 398.38 447.357 398.758 448.97 399.217 450.124 400.636 450.243 402.309 450.243 406.214 444.852 411.453 442.026 413.776 439.203 411.457 433.812 406.221 433.812 402.309 433.927 400.64 435.075 399.22 436.684 398.759 436.892 398.71 437.105 398.686 437.318 398.688 438.681 398.688 439.959 399.75 440.967 401.746 441.171 402.144 441.581 402.394 442.028 402.393Z" fill="#FF9C19"/><path d="M509.853 384.58C507.558 384.083 505.199 385.081 503.957 387.074 502.718 385.081 500.36 384.083 498.067 384.58 495.39 385.302 493.488 387.673 493.366 390.443 493.366 396.76 502.832 404.061 503.235 404.37 503.661 404.695 504.251 404.695 504.677 404.37 505.08 404.061 514.547 396.76 514.547 390.443 514.453 387.665 512.543 385.279 509.853 384.58ZM503.956 401.908C501.132 399.585 495.741 394.346 495.741 390.441 495.857 388.77 497.006 387.35 498.617 386.888 498.824 386.839 499.037 386.813 499.251 386.812 500.614 386.812 501.891 387.881 502.895 389.87 503.097 390.271 503.507 390.523 503.956 390.523L503.956 390.523C504.404 390.524 504.814 390.272 505.016 389.871 506.18 387.568 507.701 386.503 509.302 386.888 510.91 387.352 512.057 388.771 512.172 390.44 512.172 394.346 506.781 399.585 503.956 401.908Z" fill="#FF9C19"/><path d="M509.954 404.548C517.485 417.473 517.69 433.4 510.494 446.515 511.105 447.13 511.634 447.822 512.069 448.572 520.271 434.385 520.135 416.866 511.712 402.809 511.107 403.443 510.516 404.024 509.954 404.548Z" fill="#FF9C19"/><path d="M427.875 426C427.886 450.932 448.106 471.135 473.038 471.125 479.784 471.122 486.444 469.607 492.527 466.692 491.953 466.134 491.361 465.526 490.764 464.869 469.309 474.693 443.952 465.265 434.128 443.81 429.632 433.991 429.021 422.833 432.418 412.581 431.807 411.837 431.234 411.063 430.7 410.262 428.827 415.297 427.87 420.628 427.875 426Z" fill="#FF9C19"/><path d="M441.422 393.777C441.621 393.884 441.822 393.997 442.024 394.124 443.264 393.333 444.683 392.866 446.151 392.765 458.657 382.624 475.811 380.397 490.492 387.008 490.795 386.266 491.187 385.563 491.66 384.916 474.692 377.204 454.728 380.726 441.422 393.777Z" fill="#FF9C19"/><path d="M498.486 467.165C498.912 467.49 499.502 467.49 499.928 467.165 500.331 466.856 509.798 459.555 509.798 453.237 509.703 450.459 507.793 448.074 505.103 447.375 502.809 446.878 500.449 447.876 499.208 449.869 497.968 447.877 495.611 446.88 493.318 447.375 490.641 448.096 488.739 450.468 488.616 453.238 488.616 459.555 498.084 466.856 498.486 467.165ZM493.868 449.685C494.076 449.635 494.288 449.61 494.502 449.61 495.865 449.61 497.142 450.67 498.146 452.668 498.348 453.068 498.759 453.321 499.207 453.321L499.207 453.321C499.655 453.321 500.065 453.069 500.267 452.669 501.431 450.363 502.951 449.298 504.553 449.685 506.162 450.147 507.309 451.567 507.423 453.237 507.423 457.142 502.031 462.38 499.207 464.704 496.382 462.385 490.991 457.148 490.991 453.237 491.107 451.565 492.257 450.145 493.868 449.685Z" fill="#FF9C19"/></g></svg>