<svg width="114" height="113" xmlns="http://www.w3.org/2000/svg" xmlns:xlink="http://www.w3.org/1999/xlink" xml:space="preserve" overflow="hidden"><defs><clipPath id="clip0"><rect x="416" y="551" width="114" height="113"/></clipPath></defs><g clip-path="url(#clip0)" transform="translate(-416 -551)"><path d="M29.965 56.4506 29.9026 56.2022 29.6354 56.3564C28.3524 57.145 22.9261 60.5939 22.0209 62.6032 20.9843 64.8944 22.0015 67.5921 24.2926 68.6287 26.5838 69.6652 29.2816 68.6481 30.3181 66.3569 31.248 64.31 30.2004 57.8042 29.965 56.4506ZM28.1723 65.3882C27.671 66.4936 26.3686 66.9832 25.2633 66.4819 25.2622 66.4814 25.2613 66.481 25.2602 66.4805 24.1563 65.9822 23.6654 64.6834 24.1636 63.5796 24.1642 63.5782 24.1649 63.5769 24.1655 63.5755 25.2939 62.2349 26.6286 61.0826 28.1193 60.1619 28.4162 61.89 28.4341 63.6544 28.1723 65.3882Z" fill="#FFCC00" transform="matrix(1.00885 0 0 1 416 551)"/><path d="M56.5 11.7708C31.7968 11.7708 11.7708 31.7968 11.7708 56.5 11.7708 81.2032 31.7968 101.229 56.5 101.229 81.2032 101.229 101.229 81.2032 101.229 56.5 101.229 31.7968 81.2032 11.7708 56.5 11.7708ZM56.5 98.875C33.0969 98.875 14.125 79.903 14.125 56.5 14.125 33.0969 33.0969 14.125 56.5 14.125 79.903 14.125 98.875 33.0969 98.875 56.5 98.8484 79.8921 79.8921 98.8484 56.5 98.875Z" fill="#FFCC00" transform="matrix(1.00885 0 0 1 416 551)"/><path d="M28.742 53.8009C28.5424 54.4196 28.8822 55.083 29.5009 55.2825 30.1196 55.4822 30.7828 55.1425 30.9825 54.5237 30.986 54.5127 30.9894 54.5018 30.9926 54.4907 32.423 49.8296 37.3611 47.2106 42.0221 48.641 44.8216 49.5 47.0129 51.6913 47.872 54.4907 48.0534 55.115 48.7064 55.4741 49.3307 55.2927 49.9549 55.1113 50.3141 54.4582 50.1327 53.8339 50.1295 53.823 50.1261 53.8119 50.1226 53.8009 48.3108 47.8969 42.0559 44.5794 36.1518 46.3912 32.6058 47.4793 29.8301 50.255 28.742 53.8009Z" fill="#FFCC00" transform="matrix(1.00885 0 0 1 416 551)"/><path d="M83.1092 56.2022 83.0468 56.4506C82.8113 57.8042 81.7637 64.31 82.6936 66.3569 83.7674 68.6307 86.481 69.6034 88.7548 68.5297 90.9765 67.4805 91.9651 64.8578 90.9885 62.6032 90.0822 60.5915 84.657 57.145 83.374 56.3564ZM84.8924 60.1666C86.3819 61.0853 87.716 62.2348 88.8451 63.5719 89.3045 64.696 88.7656 65.9798 87.6416 66.4392 86.5771 66.8742 85.3571 66.4155 84.843 65.387 84.5805 63.6554 84.5971 61.8929 84.8924 60.1666Z" fill="#FFCC00" transform="matrix(1.00885 0 0 1 416 551)"/><path d="M63.6684 55.2711C64.2898 55.4622 64.9484 55.1133 65.1394 54.4919 65.1396 54.4915 65.1397 54.4911 65.1398 54.4907 66.5691 49.8292 71.5066 47.2092 76.168 48.6384 78.969 49.4973 81.1615 51.6897 82.0203 54.4907 82.2017 55.115 82.8548 55.4741 83.4791 55.2927 84.1033 55.1113 84.4624 54.4582 84.2811 53.8339 84.2779 53.823 84.2745 53.8119 84.2709 53.8009 82.4602 47.8966 76.2059 44.578 70.3014 46.3887 66.7539 47.4766 63.9772 50.2535 62.8892 53.8009 62.6988 54.4221 63.0475 55.0801 63.6684 55.2711Z" fill="#FFCC00" transform="matrix(1.00885 0 0 1 416 551)"/><path d="M29.9109 73.0004C37.112 87.6273 54.8072 93.647 69.4342 86.4458 75.2762 83.5696 80.0034 78.8425 82.8796 73.0004L29.9109 73.0004ZM56.3952 87.1254C47.442 87.1584 39.0553 82.749 34.0071 75.3545L78.7834 75.3545C73.7365 82.7505 65.3501 87.1617 56.3964 87.1301Z" fill="#FFCC00" transform="matrix(1.00885 0 0 1 416 551)"/><path d="M68.1884 34.2425C74.6311 33.8747 80.6934 37.3087 83.6906 43.0236 83.9733 43.6091 84.6769 43.8546 85.2624 43.572 85.8478 43.2894 86.0933 42.5857 85.8108 42.0002 85.7996 41.9773 85.7878 41.9547 85.7752 41.9324 82.3493 35.3968 75.4166 31.4698 68.0495 31.8919 67.4008 31.9298 66.9055 32.4862 66.9431 33.1349 66.9878 33.7813 67.5412 34.2735 68.1884 34.2425Z" fill="#FFCC00" transform="matrix(1.00885 0 0 1 416 551)"/><path d="M27.7309 43.5203C27.8985 43.6087 28.0852 43.6548 28.2747 43.6545 28.7131 43.655 29.1154 43.4119 29.3188 43.0236 32.3165 37.3074 38.3807 33.8733 44.8245 34.2425 45.471 34.2722 46.0228 33.7804 46.0675 33.1349 46.1049 32.4859 45.6093 31.9294 44.9602 31.8919 44.9601 31.8919 44.96 31.8919 44.9599 31.8919 37.5925 31.4683 30.659 35.3957 27.2342 41.9324 26.9332 42.5081 27.1555 43.2187 27.7309 43.5203Z" fill="#FFCC00" transform="matrix(1.00885 0 0 1 416 551)"/></g></svg>